<svg xmlns="http://www.w3.org/2000/svg" viewBox="0 0 32 32">
  <rect width="32" height="32" rx="8" fill="url(#roseGrad)"/>
  <defs>
    <linearGradient id="roseGrad" x1="0%" y1="0%" x2="100%" y2="100%">
      <stop offset="0%" stop-color="#e11d48"/>
      <stop offset="100%" stop-color="#f43f5e"/>
    </linearGradient>
  </defs>
  <path d="M16 10h1.5m-1.5 3h1.5m-7.5 3h7.5m-7.5 3h7.5m3-9h3.375c.621 0 1.125.504 1.125 1.125V22a2.25 2.25 0 0 1-2.25 2.25M20.5 10V22a2.25 2.25 0 0 0 2.25 2.25M20.5 10V7.375c0-.621-.504-1.125-1.125-1.125H8.125C7.504 6.25 7 6.754 7 7.375V22a2.25 2.25 0 0 0 2.25 2.25h13.5M10 10h3v3h-3v-3z" fill="none" stroke="#ffffff" stroke-width="2" stroke-linecap="round" stroke-linejoin="round"/>
</svg>
